<svg xmlns="http://www.w3.org/2000/svg" width="400.501" height="79" viewBox="0 0 400.501 79">
  <g id="FRED_Logo_Home_Page" data-name="FRED Logo Home Page" transform="translate(0 0.5)">
    <g id="Group_3332" data-name="Group 3332" transform="translate(-567 -173)">
      <rect id="Rectangle_5624" data-name="Rectangle 5624" width="78" height="78" rx="10" transform="translate(889 173)" fill="#fff"/>
      <path id="Path_3215" data-name="Path 3215" d="M162.768,61.961,174.9,47.941a2.205,2.205,0,0,1,3.176-.164l12.306,11.558,16.949-25.277a2.2,2.2,0,0,1,2.873-.714l10.986,5.909,17.9-24.735c.287-.672,1,1.33,1.2,2.334s1.179,1.637.478,2.634l-17.1,23.9a2.2,2.2,0,0,1-2.844.672l-10.946-5.886L192.591,63.944a2.2,2.2,0,0,1-3.339.379L176.728,52.558l-13.96,16.005" transform="translate(726.133 162.638)" fill="#0073e6"/>
      <path id="Path_3216" data-name="Path 3216" d="M239.876,24.41c-.007.013-.026.02-.033.035L220.721,55.438l-11.367-6.151a2.14,2.14,0,0,0-2.362.217l-14.8,11.919-10.721-7.476a2.131,2.131,0,0,0-2.18-.16l-17.125,8.549v4.751a1.575,1.575,0,0,0,.21-.074l17.687-8.83,10.994,7.673a2.14,2.14,0,0,0,2.568-.089L208.57,53.73l11.893,6.435a2.134,2.134,0,0,0,2.839-.759L239.876,32.54Z" transform="translate(727.18 174.822)" fill="#1b988f"/>
    </g>
    <g id="Group_2093" data-name="Group 2093">
      <path id="Path_447" data-name="Path 447" d="M146.638,42.882V42.85a5.869,5.869,0,0,1,11.738-.032v.032a5.869,5.869,0,0,1-11.738.032m11.2-.032v-.032a5.333,5.333,0,1,0-10.666.032v.032a5.333,5.333,0,1,0,10.666-.032m-7.635-3.177h2.7a2.511,2.511,0,0,1,1.778.63,1.6,1.6,0,0,1,.489,1.17v.03a1.788,1.788,0,0,1-1.559,1.77l1.865,2.416h-1.1l-1.739-2.27h-1.541v2.27h-.888Zm2.608,2.949c.845,0,1.429-.386,1.429-1.067V41.52c0-.632-.522-1.037-1.379-1.037h-1.77v2.14Z" transform="translate(129.624 29.281)" fill="#050605"/>
      <path id="Path_448" data-name="Path 448" d="M0,2.053H61.341v18.89H21.252V34.169H57.509V52.06H21.252V79.84H0Z" transform="translate(0 -2.053)" fill="#1a1818"/>
      <path id="Path_449" data-name="Path 449" d="M35.706,2.053H71.962c11.722,0,19.828,3.113,24.977,8.447,4.49,4.445,6.792,10.443,6.792,18.113v.221c0,11.891-6.245,19.78-15.775,23.892L106.248,79.84H81.71L66.265,56.282h-9.31V79.84H35.706ZM70.977,39.391c7.23,0,11.392-3.556,11.392-9.223v-.221c0-6.114-4.382-9.225-11.5-9.225H56.956V39.391Z" transform="translate(31.745 -2.053)" fill="#1a1818"/>
      <path id="Path_450" data-name="Path 450" d="M75.581,2.053h61.671V20.389H96.612V32.166h36.806v17H96.612V61.5H137.8V79.84H75.581Z" transform="translate(67.13 -2.053)" fill="#1a1818"/>
      <path id="Path_451" data-name="Path 451" d="M112.4,2.053h29.578c27.386,0,43.27,16,43.27,38.449v.221c0,22.448-16.1,39.117-43.706,39.117H112.4Zm29.9,58.673c12.706,0,21.145-7.113,21.145-19.67v-.221c0-12.445-8.439-19.668-21.145-19.668H133.65v39.56Z" transform="translate(99.997 -2.053)" fill="#1a1818"/>
    </g>
    <g id="Group_3331" data-name="Group 3331" transform="translate(9714 14016)">
      <rect id="Rectangle_5466" data-name="Rectangle 5466" width="78" height="78" rx="10" transform="translate(-9391.999 -14016)" fill="none" stroke="#000" stroke-miterlimit="10" stroke-width="1"/>
    </g>
  </g>
</svg>
